<?xml version="1.0" encoding="UTF-8"?>
<svg xmlns="http://www.w3.org/2000/svg" xmlns:xlink="http://www.w3.org/1999/xlink" width="512" height="408" viewBox="0 0 203 153" version="1.1">
<g id="surface1">
<path style=" stroke:none;fill-rule:nonzero;fill:rgb(87.45098%,91.764706%,93.72549%);fill-opacity:1;" d="M 141.050781 74.601562 C 140.769531 74.601562 140.542969 74.375 140.542969 74.09375 L 140.542969 72.0625 C 140.542969 71.785156 140.769531 71.558594 141.050781 71.558594 C 141.328125 71.558594 141.558594 71.785156 141.558594 72.0625 L 141.558594 74.09375 C 141.558594 74.375 141.328125 74.601562 141.050781 74.601562 Z M 141.050781 74.601562 "/>
<path style=" stroke:none;fill-rule:nonzero;fill:rgb(87.45098%,91.764706%,93.72549%);fill-opacity:1;" d="M 141.050781 79.21875 C 140.769531 79.21875 140.542969 78.992188 140.542969 78.710938 L 140.542969 76.683594 C 140.542969 76.402344 140.769531 76.175781 141.050781 76.175781 C 141.328125 76.175781 141.558594 76.402344 141.558594 76.683594 L 141.558594 78.710938 C 141.558594 78.992188 141.328125 79.21875 141.050781 79.21875 Z M 141.050781 79.21875 "/>
<path style=" stroke:none;fill-rule:nonzero;fill:rgb(87.45098%,91.764706%,93.72549%);fill-opacity:1;" d="M 144.382812 75.886719 L 142.355469 75.886719 C 142.074219 75.886719 141.847656 75.660156 141.847656 75.378906 C 141.847656 75.097656 142.074219 74.871094 142.355469 74.871094 L 144.382812 74.871094 C 144.664062 74.871094 144.890625 75.097656 144.890625 75.378906 C 144.890625 75.660156 144.664062 75.886719 144.382812 75.886719 Z M 144.382812 75.886719 "/>
<path style=" stroke:none;fill-rule:nonzero;fill:rgb(87.45098%,91.764706%,93.72549%);fill-opacity:1;" d="M 139.765625 75.886719 L 137.734375 75.886719 C 137.457031 75.886719 137.226562 75.660156 137.226562 75.378906 C 137.226562 75.097656 137.457031 74.871094 137.734375 74.871094 L 139.765625 74.871094 C 140.046875 74.871094 140.273438 75.097656 140.273438 75.378906 C 140.273438 75.660156 140.046875 75.886719 139.765625 75.886719 Z M 139.765625 75.886719 "/>
<path style=" stroke:none;fill-rule:nonzero;fill:rgb(87.45098%,91.764706%,93.72549%);fill-opacity:1;" d="M 115.601562 34.597656 C 115.324219 34.597656 115.097656 34.367188 115.097656 34.089844 L 115.097656 32.058594 C 115.097656 31.777344 115.324219 31.550781 115.601562 31.550781 C 115.882812 31.550781 116.109375 31.777344 116.109375 32.058594 L 116.109375 34.089844 C 116.109375 34.367188 115.882812 34.597656 115.601562 34.597656 Z M 115.601562 34.597656 "/>
<path style=" stroke:none;fill-rule:nonzero;fill:rgb(87.45098%,91.764706%,93.72549%);fill-opacity:1;" d="M 115.601562 39.21875 C 115.324219 39.21875 115.097656 38.992188 115.097656 38.710938 L 115.097656 36.65625 C 115.097656 36.375 115.324219 36.148438 115.601562 36.148438 C 115.882812 36.148438 116.109375 36.375 116.109375 36.65625 L 116.109375 38.710938 C 116.109375 38.992188 115.882812 39.21875 115.601562 39.21875 Z M 115.601562 39.21875 "/>
<path style=" stroke:none;fill-rule:nonzero;fill:rgb(87.45098%,91.764706%,93.72549%);fill-opacity:1;" d="M 118.9375 35.898438 L 116.90625 35.898438 C 116.628906 35.898438 116.398438 35.671875 116.398438 35.390625 C 116.398438 35.113281 116.628906 34.886719 116.90625 34.886719 L 118.9375 34.886719 C 119.21875 34.886719 119.445312 35.113281 119.445312 35.390625 C 119.445312 35.671875 119.21875 35.898438 118.9375 35.898438 Z M 118.9375 35.898438 "/>
<path style=" stroke:none;fill-rule:nonzero;fill:rgb(87.45098%,91.764706%,93.72549%);fill-opacity:1;" d="M 114.320312 35.898438 L 112.289062 35.898438 C 112.007812 35.898438 111.78125 35.671875 111.78125 35.390625 C 111.78125 35.113281 112.007812 34.886719 112.289062 34.886719 L 114.320312 34.886719 C 114.601562 34.886719 114.828125 35.113281 114.828125 35.390625 C 114.828125 35.671875 114.601562 35.898438 114.320312 35.898438 Z M 114.320312 35.898438 "/>
<path style=" stroke:none;fill-rule:nonzero;fill:rgb(87.45098%,91.764706%,93.72549%);fill-opacity:1;" d="M 144.480469 60.019531 C 144.199219 60.019531 143.972656 59.792969 143.972656 59.515625 L 143.972656 55.738281 C 143.972656 55.457031 144.199219 55.230469 144.480469 55.230469 C 144.761719 55.230469 144.988281 55.457031 144.988281 55.738281 L 144.988281 59.515625 C 144.988281 59.792969 144.761719 60.019531 144.480469 60.019531 Z M 144.480469 60.019531 "/>
<path style=" stroke:none;fill-rule:nonzero;fill:rgb(87.45098%,91.764706%,93.72549%);fill-opacity:1;" d="M 146.363281 58.132812 L 142.609375 58.132812 C 142.328125 58.132812 142.101562 57.90625 142.101562 57.625 C 142.101562 57.347656 142.328125 57.117188 142.609375 57.117188 L 146.378906 57.117188 C 146.660156 57.117188 146.886719 57.347656 146.886719 57.625 C 146.886719 57.90625 146.660156 58.132812 146.378906 58.132812 Z M 146.363281 58.132812 "/>
<path style=" stroke:none;fill-rule:nonzero;fill:rgb(3.529412%,24.705882%,40.784314%);fill-opacity:1;" d="M 130.640625 103.398438 L 100.472656 122.367188 C 98.378906 123.6875 95.613281 123.054688 94.292969 120.960938 L 57.328125 62.164062 C 56.007812 60.070312 56.640625 57.304688 58.734375 55.984375 L 88.902344 37.015625 C 91 35.699219 93.765625 36.332031 95.082031 38.425781 L 132.050781 97.222656 C 133.367188 99.316406 132.738281 102.082031 130.640625 103.398438 Z M 130.640625 103.398438 "/>
<path style=" stroke:none;fill-rule:nonzero;fill:rgb(3.529412%,24.705882%,40.784314%);fill-opacity:1;" d="M 98.101562 123.570312 C 96.382812 123.574219 94.78125 122.695312 93.867188 121.242188 L 56.894531 62.449219 C 56.1875 61.328125 55.957031 59.976562 56.25 58.683594 C 56.542969 57.394531 57.339844 56.273438 58.457031 55.570312 L 88.628906 36.59375 C 90.960938 35.132812 94.039062 35.835938 95.507812 38.164062 L 132.484375 96.957031 C 133.953125 99.285156 133.257812 102.359375 130.933594 103.832031 L 100.765625 122.808594 C 99.964844 123.3125 99.042969 123.574219 98.101562 123.570312 Z M 91.277344 36.847656 C 90.53125 36.847656 89.800781 37.058594 89.171875 37.457031 L 59 56.429688 C 58.109375 56.988281 57.476562 57.878906 57.242188 58.90625 C 57.007812 59.933594 57.191406 61.011719 57.753906 61.90625 L 94.726562 120.699219 C 95.894531 122.554688 98.347656 123.113281 100.207031 121.945312 L 130.375 102.976562 C 132.234375 101.808594 132.789062 99.355469 131.621094 97.5 L 94.648438 38.703125 C 93.921875 37.542969 92.648438 36.84375 91.277344 36.847656 Z M 91.277344 36.847656 "/>
<path style=" stroke:none;fill-rule:nonzero;fill:rgb(40.784314%,88.235294%,99.215686%);fill-opacity:1;" d="M 135.144531 100.128906 L 104.855469 119.015625 C 102.75 120.328125 99.984375 119.6875 98.671875 117.582031 L 61.863281 58.550781 C 60.550781 56.445312 61.191406 53.675781 63.296875 52.367188 L 93.585938 33.476562 C 95.691406 32.167969 98.460938 32.808594 99.769531 34.914062 L 136.578125 93.945312 C 137.890625 96.050781 137.25 98.816406 135.144531 100.128906 Z M 135.144531 100.128906 "/>
<path style=" stroke:none;fill-rule:nonzero;fill:rgb(3.529412%,24.705882%,40.784314%);fill-opacity:1;" d="M 102.800781 120.617188 C 101.082031 120.617188 99.480469 119.738281 98.566406 118.28125 L 61.59375 59.488281 C 60.890625 58.371094 60.65625 57.015625 60.953125 55.726562 C 61.246094 54.433594 62.042969 53.3125 63.164062 52.613281 L 93.328125 33.640625 C 95.664062 32.175781 98.742188 32.878906 100.210938 35.210938 L 137.183594 94.003906 C 138.632812 96.332031 137.933594 99.394531 135.613281 100.859375 L 105.441406 119.832031 L 105.175781 119.402344 L 105.441406 119.832031 C 104.652344 120.335938 103.738281 120.609375 102.800781 120.617188 Z M 95.976562 33.871094 C 95.234375 33.871094 94.503906 34.082031 93.871094 34.480469 L 63.703125 53.453125 C 62.808594 54.011719 62.175781 54.90625 61.941406 55.933594 C 61.707031 56.960938 61.890625 58.039062 62.453125 58.929688 L 99.429688 117.722656 C 100.597656 119.578125 103.046875 120.140625 104.90625 118.972656 L 135.078125 99.996094 C 136.933594 98.828125 137.492188 96.378906 136.324219 94.519531 L 99.347656 35.746094 C 98.789062 34.855469 97.898438 34.222656 96.871094 33.992188 C 96.578125 33.917969 96.28125 33.875 95.976562 33.871094 Z M 95.976562 33.871094 "/>
<path style=" stroke:none;fill-rule:nonzero;fill:rgb(100%,100%,100%);fill-opacity:1;" d="M 129.597656 92.222656 L 100.257812 110.671875 C 99.160156 111.359375 97.714844 111.03125 97.023438 109.933594 L 67.714844 63.320312 C 67.023438 62.222656 67.355469 60.777344 68.453125 60.085938 L 97.789062 41.640625 C 98.886719 40.949219 100.335938 41.28125 101.023438 42.375 L 130.332031 88.992188 C 131.023438 90.085938 130.691406 91.535156 129.597656 92.222656 Z M 129.597656 92.222656 "/>
<path style=" stroke:none;fill-rule:nonzero;fill:rgb(3.529412%,24.705882%,40.784314%);fill-opacity:1;" d="M 99.011719 111.546875 C 98.03125 111.550781 97.121094 111.046875 96.597656 110.21875 L 67.277344 63.597656 C 66.875 62.960938 66.746094 62.1875 66.914062 61.449219 C 67.082031 60.710938 67.535156 60.074219 68.175781 59.671875 L 97.519531 41.21875 C 98.851562 40.382812 100.609375 40.78125 101.449219 42.113281 L 130.765625 88.730469 C 131.597656 90.0625 131.199219 91.820312 129.871094 92.660156 L 100.527344 111.117188 C 100.074219 111.398438 99.546875 111.550781 99.011719 111.546875 Z M 100.257812 110.683594 Z M 99.035156 41.792969 C 98.6875 41.792969 98.351562 41.890625 98.058594 42.078125 L 68.714844 60.527344 C 68.300781 60.789062 68.007812 61.203125 67.898438 61.679688 C 67.792969 62.15625 67.878906 62.65625 68.140625 63.066406 L 97.441406 109.679688 C 97.984375 110.539062 99.117188 110.792969 99.976562 110.253906 L 129.320312 91.800781 C 129.734375 91.542969 130.027344 91.128906 130.136719 90.652344 C 130.242188 90.175781 130.15625 89.675781 129.894531 89.261719 L 100.589844 42.65625 C 100.332031 42.242188 99.921875 41.949219 99.445312 41.84375 C 99.308594 41.808594 99.171875 41.792969 99.035156 41.792969 Z M 99.035156 41.792969 "/>
<path style=" stroke:none;fill-rule:nonzero;fill:rgb(3.529412%,24.705882%,40.784314%);fill-opacity:1;" d="M 87.808594 43.800781 C 87.808594 44.199219 87.484375 44.523438 87.085938 44.523438 C 86.6875 44.523438 86.367188 44.199219 86.367188 43.800781 C 86.367188 43.402344 86.6875 43.082031 87.085938 43.082031 C 87.484375 43.082031 87.808594 43.402344 87.808594 43.800781 Z M 87.808594 43.800781 "/>
<path style=" stroke:none;fill-rule:nonzero;fill:rgb(100%,100%,100%);fill-opacity:1;" d="M 84.167969 45.632812 L 74.414062 51.769531 "/>
<path style=" stroke:none;fill-rule:nonzero;fill:rgb(3.529412%,24.705882%,40.784314%);fill-opacity:1;" d="M 74.414062 52.277344 C 74.1875 52.277344 73.988281 52.128906 73.925781 51.910156 C 73.863281 51.691406 73.953125 51.457031 74.144531 51.339844 L 83.898438 45.203125 C 84.136719 45.054688 84.453125 45.125 84.601562 45.363281 C 84.75 45.601562 84.675781 45.917969 84.4375 46.066406 L 74.683594 52.199219 C 74.601562 52.25 74.507812 52.277344 74.414062 52.277344 Z M 74.414062 52.277344 "/>
<path style=" stroke:none;fill-rule:nonzero;fill:rgb(3.529412%,24.705882%,40.784314%);fill-opacity:1;" d="M 120.484375 105.464844 C 120.484375 107.140625 119.125 108.496094 117.449219 108.496094 C 115.773438 108.496094 114.414062 107.140625 114.414062 105.464844 C 114.414062 103.785156 115.773438 102.429688 117.449219 102.429688 C 119.125 102.429688 120.484375 103.785156 120.484375 105.464844 Z M 120.484375 105.464844 "/>
<path style=" stroke:none;fill-rule:nonzero;fill:rgb(40.784314%,88.235294%,99.215686%);fill-opacity:1;" d="M 74.359375 82.792969 L 71.988281 84.285156 "/>
<path style=" stroke:none;fill-rule:nonzero;fill:rgb(3.529412%,24.705882%,40.784314%);fill-opacity:1;" d="M 71.988281 84.792969 C 71.765625 84.789062 71.570312 84.640625 71.507812 84.425781 C 71.445312 84.210938 71.53125 83.980469 71.71875 83.859375 L 74.089844 82.367188 C 74.242188 82.253906 74.445312 82.238281 74.617188 82.324219 C 74.785156 82.40625 74.894531 82.578125 74.898438 82.769531 C 74.898438 82.960938 74.796875 83.136719 74.628906 83.222656 L 72.257812 84.714844 C 72.175781 84.765625 72.082031 84.792969 71.988281 84.792969 Z M 71.988281 84.792969 "/>
<path style=" stroke:none;fill-rule:nonzero;fill:rgb(87.45098%,91.764706%,93.72549%);fill-opacity:1;" d="M 126.648438 90.203125 C 126.472656 90.203125 126.3125 90.113281 126.21875 89.96875 L 118.445312 77.667969 C 118.296875 77.429688 118.367188 77.117188 118.601562 76.96875 C 118.839844 76.816406 119.152344 76.886719 119.304688 77.125 L 127.078125 89.414062 C 127.226562 89.652344 127.15625 89.964844 126.921875 90.117188 C 126.839844 90.167969 126.742188 90.199219 126.648438 90.203125 Z M 126.648438 90.203125 "/>
<path style=" stroke:none;fill-rule:nonzero;fill:rgb(87.45098%,91.764706%,93.72549%);fill-opacity:1;" d="M 77.988281 71.886719 C 77.816406 71.886719 77.65625 71.796875 77.5625 71.652344 L 76.003906 69.234375 C 75.929688 69.117188 75.902344 68.980469 75.933594 68.847656 C 75.960938 68.714844 76.042969 68.601562 76.15625 68.527344 L 102.191406 52.078125 C 102.425781 51.929688 102.734375 52 102.886719 52.230469 L 109.359375 61.953125 C 109.472656 62.105469 109.496094 62.304688 109.414062 62.476562 C 109.335938 62.644531 109.167969 62.757812 108.980469 62.765625 C 108.792969 62.777344 108.613281 62.679688 108.519531 62.519531 L 102.316406 53.207031 L 77.140625 69.109375 L 78.417969 71.105469 C 78.570312 71.339844 78.5 71.652344 78.265625 71.804688 C 78.183594 71.859375 78.085938 71.886719 77.988281 71.886719 Z M 77.988281 71.886719 "/>
<path style=" stroke:none;fill-rule:nonzero;fill:rgb(3.529412%,24.705882%,40.784314%);fill-opacity:1;" d="M 90.570312 84.574219 C 90.429688 84.574219 90.292969 84.515625 90.199219 84.410156 C 90.007812 84.207031 90.019531 83.886719 90.222656 83.695312 L 110.285156 64.917969 C 110.488281 64.726562 110.8125 64.738281 111.003906 64.941406 C 111.195312 65.144531 111.183594 65.46875 110.980469 65.660156 L 90.914062 84.4375 C 90.820312 84.523438 90.695312 84.574219 90.570312 84.574219 Z M 90.570312 84.574219 "/>
<path style=" stroke:none;fill-rule:nonzero;fill:rgb(3.529412%,24.705882%,40.784314%);fill-opacity:1;" d="M 107.382812 93.5625 C 107.292969 93.5625 107.210938 93.539062 107.132812 93.496094 C 106.886719 93.359375 106.800781 93.050781 106.933594 92.804688 L 118.753906 71.796875 C 118.894531 71.550781 119.207031 71.46875 119.449219 71.609375 C 119.695312 71.746094 119.777344 72.058594 119.636719 72.304688 L 107.8125 93.3125 C 107.722656 93.464844 107.558594 93.558594 107.382812 93.5625 Z M 107.382812 93.5625 "/>
<path style=" stroke:none;fill-rule:nonzero;fill:rgb(3.529412%,24.705882%,40.784314%);fill-opacity:1;" d="M 99.242188 76.453125 C 99.070312 76.457031 98.910156 76.371094 98.816406 76.226562 C 97.777344 74.492188 96.039062 73.296875 94.050781 72.949219 C 91.359375 72.492188 87.984375 73.582031 85.019531 75.867188 C 84.878906 75.980469 84.683594 76.007812 84.515625 75.9375 C 84.347656 75.871094 84.226562 75.722656 84.199219 75.546875 C 83.828125 73.664062 82.40625 72.167969 80.546875 71.699219 C 78.648438 71.261719 76.652344 71.699219 75.109375 72.886719 C 75 72.964844 74.863281 73 74.730469 72.976562 C 74.597656 72.957031 74.480469 72.882812 74.398438 72.773438 C 74.234375 72.550781 74.285156 72.234375 74.507812 72.070312 C 76.296875 70.703125 78.609375 70.203125 80.804688 70.714844 C 82.769531 71.230469 84.347656 72.6875 85.019531 74.601562 C 88.066406 72.433594 91.402344 71.464844 94.210938 71.941406 C 96.484375 72.339844 98.472656 73.699219 99.664062 75.671875 C 99.761719 75.828125 99.769531 76.027344 99.679688 76.191406 C 99.59375 76.351562 99.421875 76.453125 99.238281 76.453125 Z M 99.242188 76.453125 "/>
<path style=" stroke:none;fill-rule:nonzero;fill:rgb(3.529412%,24.705882%,40.784314%);fill-opacity:1;" d="M 92.871094 86.457031 C 92.75 86.457031 92.632812 86.414062 92.542969 86.335938 C 87.878906 82.40625 80.957031 84.640625 80.871094 84.660156 C 80.605469 84.746094 80.320312 84.605469 80.230469 84.339844 C 80.1875 84.214844 80.195312 84.074219 80.257812 83.953125 C 80.316406 83.832031 80.421875 83.738281 80.550781 83.695312 C 80.855469 83.601562 88.078125 81.265625 93.183594 85.558594 C 93.347656 85.695312 93.410156 85.921875 93.335938 86.121094 C 93.261719 86.324219 93.070312 86.457031 92.855469 86.457031 Z M 92.871094 86.457031 "/>
<path style=" stroke:none;fill-rule:nonzero;fill:rgb(3.529412%,24.705882%,40.784314%);fill-opacity:1;" d="M 123.046875 95.683594 C 122.78125 95.683594 122.558594 95.476562 122.539062 95.210938 C 122.519531 94.570312 122.222656 93.972656 121.730469 93.5625 C 120.886719 92.867188 119.378906 92.585938 117.585938 92.796875 C 117.417969 92.816406 117.25 92.746094 117.140625 92.617188 C 117.03125 92.484375 116.996094 92.308594 117.042969 92.144531 C 117.539062 90.515625 117.269531 88.753906 116.316406 87.34375 C 115.359375 85.933594 113.824219 85.027344 112.128906 84.878906 C 111.847656 84.855469 111.640625 84.605469 111.664062 84.324219 C 111.691406 84.046875 111.9375 83.839844 112.21875 83.863281 C 114.089844 84.027344 115.808594 84.972656 116.945312 86.472656 C 118.082031 87.96875 118.535156 89.878906 118.1875 91.726562 C 119.445312 91.660156 121.1875 91.789062 122.375 92.777344 C 123.082031 93.359375 123.511719 94.21875 123.554688 95.136719 C 123.566406 95.269531 123.519531 95.402344 123.433594 95.503906 C 123.34375 95.605469 123.21875 95.667969 123.082031 95.679688 Z M 123.046875 95.683594 "/>
<path style=" stroke:none;fill-rule:nonzero;fill:rgb(3.529412%,24.705882%,40.784314%);fill-opacity:1;" d="M 118 96.191406 C 117.742188 96.191406 117.523438 96.003906 117.492188 95.75 C 117.175781 93.589844 115.5625 91.847656 113.429688 91.363281 C 113.300781 91.335938 113.183594 91.257812 113.109375 91.144531 C 113.039062 91.03125 113.011719 90.894531 113.039062 90.761719 C 113.070312 90.628906 113.148438 90.511719 113.261719 90.441406 C 113.375 90.367188 113.511719 90.339844 113.644531 90.371094 C 116.183594 90.957031 118.105469 93.039062 118.480469 95.617188 C 118.515625 95.894531 118.320312 96.148438 118.042969 96.1875 Z M 118 96.191406 "/>
<path style=" stroke:none;fill-rule:nonzero;fill:rgb(96.078431%,38.039216%,19.607843%);fill-opacity:1;" d="M 116.03125 51.699219 C 112.53125 50.894531 108.855469 51.613281 105.921875 53.675781 C 101.652344 56.585938 99.035156 60.910156 97.074219 65.308594 C 96.929688 65.648438 97.035156 66.039062 97.328125 66.261719 C 97.625 66.480469 98.03125 66.464844 98.3125 66.226562 C 99.804688 64.824219 101.6875 63.90625 103.710938 63.597656 C 107.679688 63.121094 109.339844 64.785156 109.339844 64.785156 Z M 116.03125 51.699219 "/>
<path style=" stroke:none;fill-rule:nonzero;fill:rgb(3.529412%,24.705882%,40.784314%);fill-opacity:1;" d="M 97.800781 66.9375 C 97.523438 66.9375 97.253906 66.847656 97.035156 66.679688 C 96.527344 66.324219 96.351562 65.660156 96.613281 65.101562 C 98.175781 61.589844 100.816406 56.539062 105.636719 53.257812 C 108.695312 51.101562 112.535156 50.363281 116.175781 51.226562 C 116.320312 51.269531 116.4375 51.375 116.496094 51.511719 C 116.554688 51.652344 116.550781 51.808594 116.480469 51.941406 L 109.792969 65.03125 C 109.71875 65.175781 109.578125 65.277344 109.417969 65.304688 C 109.257812 65.328125 109.09375 65.273438 108.980469 65.15625 C 108.980469 65.15625 107.40625 63.679688 103.773438 64.140625 C 101.847656 64.429688 100.0625 65.300781 98.652344 66.644531 C 98.414062 66.84375 98.109375 66.945312 97.800781 66.9375 Z M 113.308594 51.890625 C 110.773438 51.890625 108.292969 52.660156 106.203125 54.097656 C 101.601562 57.230469 99.054688 62.117188 97.535156 65.511719 C 97.476562 65.636719 97.519531 65.785156 97.632812 65.863281 C 97.730469 65.949219 97.878906 65.949219 97.976562 65.863281 C 99.539062 64.382812 101.523438 63.421875 103.652344 63.113281 C 106.585938 62.757812 108.347656 63.523438 109.15625 64.035156 L 115.277344 52.070312 C 114.628906 51.953125 113.96875 51.894531 113.308594 51.890625 Z M 113.308594 51.890625 "/>
<path style=" stroke:none;fill-rule:nonzero;fill:rgb(96.078431%,38.039216%,19.607843%);fill-opacity:1;" d="M 130.535156 62.289062 C 132.363281 65.378906 132.792969 69.097656 131.722656 72.519531 C 130.25 77.472656 126.921875 81.28125 123.328125 84.484375 C 123.050781 84.734375 122.636719 84.757812 122.335938 84.539062 C 122.03125 84.320312 121.925781 83.921875 122.078125 83.578125 C 122.964844 81.734375 123.265625 79.664062 122.9375 77.640625 C 122.1875 73.714844 120.101562 72.636719 120.101562 72.636719 Z M 130.535156 62.289062 "/>
<path style=" stroke:none;fill-rule:nonzero;fill:rgb(3.529412%,24.705882%,40.784314%);fill-opacity:1;" d="M 122.816406 85.207031 C 122.535156 85.207031 122.265625 85.117188 122.042969 84.949219 C 121.546875 84.597656 121.367188 83.941406 121.621094 83.386719 C 122.472656 81.636719 122.761719 79.667969 122.449219 77.75 C 121.765625 74.148438 119.910156 73.109375 119.875 73.101562 C 119.734375 73.023438 119.632812 72.886719 119.609375 72.726562 C 119.585938 72.5625 119.640625 72.402344 119.753906 72.289062 L 130.1875 61.941406 C 130.296875 61.832031 130.445312 61.777344 130.59375 61.792969 C 130.746094 61.808594 130.878906 61.886719 130.964844 62.011719 C 132.886719 65.222656 133.34375 69.101562 132.21875 72.667969 C 130.558594 78.25 126.550781 82.3125 123.679688 84.847656 C 123.445312 85.074219 123.136719 85.203125 122.816406 85.207031 Z M 120.898438 72.585938 C 121.628906 73.207031 122.890625 74.652344 123.433594 77.554688 C 123.785156 79.679688 123.46875 81.859375 122.535156 83.796875 C 122.476562 83.914062 122.515625 84.058594 122.628906 84.128906 C 122.730469 84.21875 122.882812 84.21875 122.988281 84.128906 C 125.761719 81.652344 129.640625 77.738281 131.230469 72.40625 C 132.167969 69.324219 131.882812 65.996094 130.425781 63.121094 Z M 120.898438 72.585938 "/>
<path style=" stroke:none;fill-rule:nonzero;fill:rgb(100%,73.72549%,5.490196%);fill-opacity:1;" d="M 136.421875 57.042969 C 130.527344 65.105469 124.84375 70.140625 119.410156 73.253906 L 108.976562 65.640625 C 110.296875 59.550781 113.359375 52.570312 119.253906 44.511719 C 121.375 41.585938 123.90625 38.976562 126.769531 36.769531 C 135.035156 30.425781 143.058594 29.945312 143.058594 29.945312 C 143.058594 29.945312 145.046875 37.738281 141.511719 47.542969 C 140.273438 50.933594 138.5625 54.132812 136.421875 57.042969 Z M 136.421875 57.042969 "/>
<path style=" stroke:none;fill-rule:nonzero;fill:rgb(3.529412%,24.705882%,40.784314%);fill-opacity:1;" d="M 119.410156 73.757812 C 119.300781 73.757812 119.195312 73.722656 119.109375 73.65625 L 108.675781 66.046875 C 108.515625 65.929688 108.441406 65.730469 108.476562 65.539062 C 109.953125 58.710938 113.34375 51.738281 118.839844 44.222656 C 120.992188 41.257812 123.554688 38.617188 126.453125 36.378906 C 134.75 30.007812 142.695312 29.46875 143.023438 29.453125 C 143.261719 29.445312 143.472656 29.605469 143.53125 29.835938 C 143.613281 30.15625 145.515625 37.882812 141.96875 47.726562 C 140.71875 51.167969 138.980469 54.417969 136.808594 57.367188 C 131.316406 64.886719 125.699219 70.238281 119.644531 73.714844 C 119.570312 73.746094 119.488281 73.761719 119.410156 73.757812 Z M 109.542969 65.410156 L 119.441406 72.644531 C 125.261719 69.234375 130.6875 64.015625 136.011719 56.742188 C 138.121094 53.867188 139.816406 50.707031 141.035156 47.355469 C 143.03125 41.96875 143.59375 36.152344 142.660156 30.484375 C 136.972656 31.320312 131.605469 33.617188 127.078125 37.152344 C 124.253906 39.335938 121.753906 41.910156 119.660156 44.796875 C 114.335938 52.078125 111.027344 58.828125 109.542969 65.410156 Z M 109.542969 65.410156 "/>
<path style=" stroke:none;fill-rule:nonzero;fill:rgb(3.529412%,24.705882%,40.784314%);fill-opacity:1;" d="M 117.34375 78.078125 L 105 69.058594 L 108.984375 65.632812 L 119.398438 73.242188 Z M 117.34375 78.078125 "/>
<path style=" stroke:none;fill-rule:nonzero;fill:rgb(3.529412%,24.705882%,40.784314%);fill-opacity:1;" d="M 117.347656 78.585938 C 117.242188 78.585938 117.136719 78.550781 117.050781 78.488281 L 104.703125 69.472656 C 104.582031 69.375 104.503906 69.234375 104.496094 69.082031 C 104.488281 68.925781 104.554688 68.773438 104.671875 68.675781 L 108.65625 65.25 C 108.839844 65.101562 109.105469 65.101562 109.289062 65.25 L 119.699219 72.859375 C 119.890625 73 119.960938 73.253906 119.867188 73.46875 L 117.835938 78.308594 C 117.773438 78.449219 117.652344 78.554688 117.5 78.597656 C 117.449219 78.601562 117.398438 78.597656 117.347656 78.585938 Z M 105.820312 69.023438 L 117.132812 77.292969 L 118.773438 73.414062 L 109.015625 66.277344 Z M 105.820312 69.023438 "/>
<path style=" stroke:none;fill-rule:nonzero;fill:rgb(40.784314%,88.235294%,99.215686%);fill-opacity:1;" d="M 133.898438 50.035156 C 133.898438 53.085938 131.425781 55.5625 128.371094 55.5625 C 125.320312 55.5625 122.84375 53.085938 122.84375 50.035156 C 122.84375 46.980469 125.320312 44.507812 128.371094 44.507812 C 131.425781 44.507812 133.898438 46.980469 133.898438 50.035156 Z M 133.898438 50.035156 "/>
<path style=" stroke:none;fill-rule:nonzero;fill:rgb(3.529412%,24.705882%,40.784314%);fill-opacity:1;" d="M 128.363281 56.066406 C 125.570312 56.0625 123.148438 54.144531 122.503906 51.429688 C 121.859375 48.714844 123.160156 45.910156 125.648438 44.648438 C 128.136719 43.390625 131.167969 44 132.972656 46.128906 C 134.78125 48.253906 134.890625 51.34375 133.242188 53.597656 C 132.105469 55.15625 130.292969 56.074219 128.363281 56.066406 Z M 128.398438 45.035156 C 125.933594 45.035156 123.832031 46.824219 123.441406 49.261719 C 123.054688 51.695312 124.496094 54.050781 126.839844 54.816406 C 129.183594 55.582031 131.734375 54.527344 132.859375 52.332031 C 133.980469 50.140625 133.34375 47.453125 131.351562 46 C 130.492188 45.375 129.460938 45.035156 128.398438 45.035156 Z M 128.398438 45.035156 "/>
<path style=" stroke:none;fill-rule:nonzero;fill:rgb(96.078431%,38.039216%,19.607843%);fill-opacity:1;" d="M 141.511719 47.527344 L 126.792969 36.753906 C 135.0625 30.410156 143.085938 29.933594 143.085938 29.933594 C 143.085938 29.933594 145.046875 37.722656 141.511719 47.527344 Z M 141.511719 47.527344 "/>
<path style=" stroke:none;fill-rule:nonzero;fill:rgb(3.529412%,24.705882%,40.784314%);fill-opacity:1;" d="M 141.511719 48.035156 C 141.402344 48.03125 141.300781 48 141.210938 47.9375 L 126.46875 37.164062 C 126.339844 37.066406 126.265625 36.917969 126.265625 36.757812 C 126.265625 36.597656 126.339844 36.449219 126.46875 36.351562 C 134.765625 29.984375 142.710938 29.445312 143.039062 29.429688 C 143.277344 29.421875 143.488281 29.578125 143.546875 29.808594 C 143.628906 30.128906 145.53125 37.859375 141.984375 47.699219 C 141.929688 47.847656 141.808594 47.964844 141.660156 48.015625 C 141.609375 48.027344 141.5625 48.035156 141.511719 48.035156 Z M 127.621094 36.746094 L 141.257812 46.714844 C 143.074219 41.503906 143.554688 35.921875 142.660156 30.476562 C 137.199219 31.277344 132.03125 33.433594 127.621094 36.746094 Z M 127.621094 36.746094 "/>
<path style=" stroke:none;fill-rule:nonzero;fill:rgb(100%,73.72549%,5.490196%);fill-opacity:1;" d="M 122.855469 57.574219 C 123.363281 57.949219 123.476562 58.664062 123.101562 59.175781 L 110.941406 75.816406 C 110.566406 76.328125 109.851562 76.441406 109.339844 76.066406 C 108.832031 75.695312 108.71875 74.976562 109.09375 74.464844 L 121.253906 57.824219 C 121.628906 57.316406 122.34375 57.203125 122.855469 57.574219 Z M 122.855469 57.574219 "/>
<path style=" stroke:none;fill-rule:nonzero;fill:rgb(3.529412%,24.705882%,40.784314%);fill-opacity:1;" d="M 110.019531 76.792969 C 109.398438 76.792969 108.832031 76.441406 108.550781 75.886719 C 108.273438 75.332031 108.324219 74.667969 108.691406 74.164062 L 120.871094 57.523438 C 121.125 57.167969 121.511719 56.929688 121.945312 56.863281 C 122.609375 56.757812 123.269531 57.0625 123.617188 57.636719 C 123.964844 58.207031 123.933594 58.933594 123.535156 59.472656 L 111.355469 76.113281 C 111.097656 76.46875 110.707031 76.707031 110.273438 76.773438 C 110.191406 76.785156 110.105469 76.792969 110.019531 76.792969 Z M 122.199219 57.859375 L 122.097656 57.859375 C 121.933594 57.886719 121.78125 57.980469 121.683594 58.117188 L 109.503906 74.757812 C 109.402344 74.894531 109.363281 75.066406 109.386719 75.230469 C 109.414062 75.398438 109.503906 75.546875 109.640625 75.648438 C 109.925781 75.855469 110.324219 75.792969 110.535156 75.511719 L 122.714844 58.871094 C 122.859375 58.675781 122.882812 58.421875 122.773438 58.207031 C 122.664062 57.988281 122.445312 57.855469 122.207031 57.855469 Z M 122.199219 57.859375 "/>
<path style=" stroke:none;fill-rule:nonzero;fill:rgb(100%,100%,100%);fill-opacity:1;" d="M 130.792969 53.617188 C 130.566406 53.617188 130.371094 53.46875 130.308594 53.253906 C 130.242188 53.035156 130.328125 52.804688 130.519531 52.683594 C 131.042969 52.238281 131.429688 51.652344 131.640625 51 C 132.234375 49.394531 131.007812 48.019531 130.957031 47.953125 C 130.765625 47.746094 130.777344 47.425781 130.984375 47.234375 C 131.1875 47.042969 131.511719 47.058594 131.703125 47.261719 C 131.773438 47.339844 133.40625 49.140625 132.589844 51.324219 C 132.3125 52.1875 131.78125 52.945312 131.066406 53.503906 C 130.988281 53.570312 130.894531 53.609375 130.792969 53.617188 Z M 130.792969 53.617188 "/>
<path style=" stroke:none;fill-rule:nonzero;fill:rgb(100%,100%,100%);fill-opacity:1;" d="M 128.84375 54.539062 C 128.5625 54.558594 128.324219 54.34375 128.304688 54.0625 C 128.289062 53.78125 128.503906 53.542969 128.78125 53.527344 C 129.113281 53.46875 129.433594 53.371094 129.742188 53.242188 C 129.996094 53.144531 130.277344 53.265625 130.386719 53.511719 C 130.492188 53.761719 130.390625 54.050781 130.148438 54.171875 C 129.75 54.339844 129.335938 54.464844 128.910156 54.535156 Z M 128.84375 54.539062 "/>
<path style=" stroke:none;fill-rule:nonzero;fill:rgb(87.45098%,91.764706%,93.72549%);fill-opacity:1;" d="M 71.949219 63.351562 C 71.722656 63.355469 71.519531 63.207031 71.453125 62.992188 C 71.386719 62.773438 71.472656 62.539062 71.664062 62.417969 L 74.019531 60.859375 C 74.132812 60.785156 74.269531 60.757812 74.402344 60.785156 C 74.535156 60.808594 74.648438 60.886719 74.722656 61 C 74.878906 61.234375 74.8125 61.546875 74.582031 61.703125 L 72.226562 63.265625 C 72.144531 63.320312 72.046875 63.351562 71.949219 63.351562 Z M 71.949219 63.351562 "/>
<path style=" stroke:none;fill-rule:nonzero;fill:rgb(87.45098%,91.764706%,93.72549%);fill-opacity:1;" d="M 73.207031 64.980469 C 73.039062 64.980469 72.878906 64.894531 72.785156 64.757812 C 72.710938 64.644531 72.683594 64.507812 72.710938 64.375 C 72.738281 64.242188 72.816406 64.125 72.929688 64.050781 L 75.035156 62.648438 C 75.269531 62.496094 75.582031 62.558594 75.738281 62.792969 C 75.894531 63.027344 75.832031 63.34375 75.597656 63.496094 L 73.492188 64.898438 C 73.40625 64.953125 73.308594 64.980469 73.207031 64.980469 Z M 73.207031 64.980469 "/>
<path style=" stroke:none;fill-rule:nonzero;fill:rgb(87.45098%,91.764706%,93.72549%);fill-opacity:1;" d="M 74.367188 66.617188 C 74.144531 66.617188 73.949219 66.472656 73.886719 66.257812 C 73.824219 66.042969 73.90625 65.8125 74.089844 65.691406 L 76.195312 64.289062 C 76.347656 64.175781 76.546875 64.15625 76.71875 64.234375 C 76.886719 64.316406 77 64.484375 77.007812 64.671875 C 77.015625 64.859375 76.921875 65.035156 76.757812 65.132812 L 74.652344 66.53125 C 74.570312 66.589844 74.46875 66.621094 74.367188 66.617188 Z M 74.367188 66.617188 "/>
<path style=" stroke:none;fill-rule:nonzero;fill:rgb(87.45098%,91.764706%,93.72549%);fill-opacity:1;" d="M 83.09375 57.972656 C 82.871094 57.96875 82.671875 57.820312 82.613281 57.605469 C 82.550781 57.390625 82.636719 57.160156 82.824219 57.039062 L 98.453125 47.125 C 98.691406 46.976562 99.003906 47.046875 99.15625 47.285156 C 99.304688 47.519531 99.234375 47.832031 98.996094 47.984375 L 83.367188 57.894531 C 83.285156 57.945312 83.191406 57.972656 83.09375 57.972656 Z M 83.09375 57.972656 "/>
<path style=" stroke:none;fill-rule:nonzero;fill:rgb(3.529412%,24.705882%,40.784314%);fill-opacity:1;" d="M 108.097656 98.121094 C 108.0625 98.125 108.027344 98.125 107.992188 98.121094 C 107.71875 98.058594 107.546875 97.789062 107.605469 97.515625 C 108.371094 93.964844 105.023438 91.957031 104.878906 91.871094 C 104.652344 91.726562 104.578125 91.425781 104.710938 91.191406 C 104.847656 90.953125 105.144531 90.867188 105.386719 90.996094 C 105.429688 91.019531 109.519531 93.457031 108.589844 97.734375 C 108.535156 97.960938 108.332031 98.121094 108.097656 98.121094 Z M 108.097656 98.121094 "/>
</g>
</svg>
